<svg width="915" height="231" viewBox="0 0 915 231" fill="none" xmlns="http://www.w3.org/2000/svg">
<g clip-path="url(#clip0_1294_14173)">
<g clip-path="url(#clip1_1294_14173)">
<path d="M334.53 68.6749C366.903 68.6749 387.478 89.5375 387.478 119.321C387.478 148.672 366.903 170.11 334.53 170.11H294.387V68.6749H334.53ZM322.588 145.219H332.372C348.63 145.219 358.846 136.011 358.846 119.321C358.846 102.487 348.63 93.1345 332.372 93.1345H322.588V145.219ZM439.757 135.148L456.159 89.3937H487.093L435.872 208.526H405.226L424.505 166.657L391.413 89.3937H422.779L439.757 135.148ZM549.433 170.11V126.802C549.433 117.45 544.253 111.983 536.196 111.983C527.851 111.983 522.671 117.45 522.671 126.802V170.11H494.47V89.3937H522.671V100.904C527.419 93.9978 535.908 88.6743 547.274 88.6743C565.979 88.6743 577.633 101.911 577.633 123.062V170.11H549.433ZM588.503 129.68C588.503 103.926 603.754 88.3865 622.89 88.3865C634.401 88.3865 642.458 93.4223 646.63 100.616V89.3937H674.831V170.11H646.63V158.888C642.458 166.082 634.257 171.118 622.89 171.118C603.754 171.118 588.503 155.435 588.503 129.68ZM646.63 129.68C646.63 118.889 639.868 112.99 631.955 112.99C623.897 112.99 617.279 118.745 617.279 129.68C617.279 140.471 623.897 146.514 631.955 146.514C639.868 146.514 646.63 140.615 646.63 129.68ZM690.9 170.11V63.6391H719.101V170.11H690.9ZM765.231 156.73C765.231 164.931 758.757 171.261 748.829 171.261C738.757 171.261 732.283 164.931 732.283 156.73C732.283 148.528 738.757 142.054 748.829 142.054C758.757 142.054 765.231 148.528 765.231 156.73ZM848.075 170.11L842.607 153.564H806.637L801.17 170.11H771.531L808.508 68.6749H841.025L877.858 170.11H848.075ZM835.557 131.982L824.622 99.1775L813.831 131.982H835.557ZM887.049 170.11V68.6749H915.25V170.11H887.049Z" fill="black"/>
<mask id="mask0_1294_14173" style="mask-type:luminance" maskUnits="userSpaceOnUse" x="0" y="-1" width="232" height="232">
<path d="M188.46 -0.169922H42.6C19.0727 -0.169922 0 18.9027 0 42.4301V188.29C0 211.817 19.0727 230.89 42.6 230.89H188.46C211.987 230.89 231.06 211.817 231.06 188.29V42.4301C231.06 18.9027 211.987 -0.169922 188.46 -0.169922Z" fill="white"/>
</mask>
<g mask="url(#mask0_1294_14173)">
<path d="M218.919 0.00976562H11.8594C5.23196 0.00976562 -0.140625 5.38235 -0.140625 12.0098V219.07C-0.140625 225.697 5.23196 231.07 11.8594 231.07H218.919C225.547 231.07 230.919 225.697 230.919 219.07V12.0098C230.919 5.38235 225.547 0.00976562 218.919 0.00976562Z" fill="black"/>
<path d="M-13.61 226.09C-13.61 226.09 124.66 222.55 138.03 131.72C138.03 131.72 148.67 261.25 -15 275.12L-13.61 226.09Z" fill="white" stroke="white" stroke-width="3" stroke-miterlimit="10"/>
<path d="M136.69 33.46C136.69 38.96 142.42 75.6 157.31 84.45C166.47 89.89 181.03 92.1 191.97 93.55C145.35 97.37 142.67 123.88 136.69 155.99C135.73 152.69 142.93 93.53 80.4297 93.53C106.79 89.88 107.46 90.39 117.97 83.21C132.15 73.53 135.61 47.88 136.67 33.46H136.69Z" fill="white"/>
<path d="M138.9 143.23L140.81 132.71" stroke="white" stroke-miterlimit="10"/>
<path d="M135.399 142.02C135.399 142.02 136.239 138.679 135.119 130.729" stroke="white" stroke-width="2" stroke-miterlimit="10"/>
<path d="M127.631 158.84C138.631 139.4 129.061 118.02 129.061 118.02L139.311 132.09L132.021 157.42L127.631 158.83V158.84Z" fill="white"/>
</g>
</g>
</g>
<defs>
<clipPath id="clip0_1294_14173">
<rect width="915" height="230.87" fill="white"/>
</clipPath>
<clipPath id="clip1_1294_14173">
<rect width="915.34" height="230.87" fill="white"/>
</clipPath>
</defs>
</svg>
